# xmcd
#
# Track frame offsets:
# 150
# 14219
# 25829
# 37844
# 50069
# 60741
# 79982
# 98714
# 110346
# 120733
# 132373
# 142677
# 155269
# 169556
# 182658
# 199307
#
# Disc length: 2755 seconds
#
#
# Revision: 0
# Processed by: cddbd v1.5.2PL0 Copyright (c) Steve Scherf et al.
# Submitted via: FreeRIP 2.51 
#
DISCID=d40ac110
DTITLE=Midlife Grass - Breeze Of Midlife
DYEAR=1900
DGENRE=Bluegrass
TTITLE0=Call Me The Breeze (J.J. Cale)
TTITLE1=I'm Using My Bible For A Roadmap (D.Reno, C.Schroeder)
TTITLE2=Lonesome Pine (Wayne Taylor)
TTITLE3=Goodbye Marie (Kenny Rogers)
TTITLE4=I'm Head Over Heels In Love With You (Lester Flatt)
TTITLE5=Midnight Moonlight (Peter Rowan)
TTITLE6=Weary Blues From Waiting (Hank Williams)
TTITLE7=It's A Loansome Road (Hal Reeves)
TTITLE8=Flying (Nice Little Penguins)
TTITLE9=When I Wake Up (Marlon B. Easterling)
TTITLE10=Wenn scho, Banjo (Ferry Leitner)
TTITLE11=Ginseng Sullivan (Norman Blake)
TTITLE12=Hard Times (Stephan Foster)
TTITLE13=Driving Nails In My Coffin (Jerry Irby)
TTITLE14=You Ain't Going Nowhere (Bob Dylan)
TTITLE15=Good Night, The Lord's Coming (Public Domain)
EXTD=
EXTT0=
EXTT1=
EXTT2=
EXTT3=
EXTT4=
EXTT5=
EXTT6=
EXTT7=
EXTT8=
EXTT9=
EXTT10=
EXTT11=
EXTT12=
EXTT13=
EXTT14=
EXTT15=
PLAYORDER=
